<?xml version="1.0" standalone="no"?>
<!DOCTYPE svg PUBLIC "-//W3C//DTD SVG 20010904//EN"
 "http://www.w3.org/TR/2001/REC-SVG-20010904/DTD/svg10.dtd">
<svg version="1.0" xmlns="http://www.w3.org/2000/svg"
 width="512.000000pt" height="512.000000pt" viewBox="0 0 512.000000 512.000000"
 preserveAspectRatio="xMidYMid meet">
<metadata>
Created by potrace 1.14, written by Peter Selinger 2001-2017
</metadata>
<g transform="translate(0.000000,512.000000) scale(0.100000,-0.100000)"
fill="#000000" stroke="none">
<path d="M2379 5116 c-2 -2 -38 -6 -79 -10 -64 -6 -210 -29 -315 -51 -72 -15
-319 -91 -340 -104 -5 -4 -28 -13 -50 -20 -126 -43 -407 -201 -559 -315 -511
-384 -861 -933 -985 -1546 -38 -190 -46 -274 -45 -520 0 -183 3 -241 19 -345
3 -16 7 -43 9 -60 22 -153 93 -404 161 -565 35 -84 139 -292 163 -327 11 -15
39 -59 63 -98 140 -222 367 -463 609 -646 114 -86 237 -162 250 -154 6 4 9 1
8 -5 -2 -6 29 -28 67 -48 201 -107 460 -202 675 -245 214 -44 291 -52 525 -52
169 0 311 8 370 20 11 3 34 6 50 9 17 2 55 10 85 16 30 6 66 13 80 16 131 25
390 118 551 199 639 319 1109 872 1318 1550 51 167 76 291 98 490 13 110 9
480 -6 575 -17 109 -17 114 -31 180 -6 30 -14 66 -16 80 -28 142 -144 460
-213 584 -10 17 -35 63 -56 101 -142 258 -373 529 -617 725 -362 292 -789 478
-1248 545 -19 3 -53 7 -75 11 -47 6 -460 16 -466 10z m339 -1331 c17 -3 49 -7
70 -11 70 -10 236 -66 317 -106 123 -62 219 -132 320 -232 188 -186 301 -398
352 -661 15 -79 21 -331 8 -385 -3 -14 -8 -40 -11 -59 -3 -19 -10 -45 -15 -58
-5 -13 -7 -23 -4 -23 9 0 -55 -170 -90 -240 -62 -122 -132 -219 -234 -321
-302 -302 -715 -424 -1136 -335 -307 65 -601 270 -777 542 -67 104 -139 278
-168 407 -49 218 -22 514 65 722 36 85 51 113 111 207 111 172 277 323 462
421 85 45 234 100 301 112 19 3 37 8 41 10 3 2 40 7 81 11 40 3 75 7 77 9 4 4
195 -4 230 -10z"/>
<path d="M2548 3349 c-9 -5 -30 -30 -46 -57 -37 -61 -79 -110 -215 -255 -272
-291 -341 -424 -341 -657 0 -141 24 -238 84 -341 70 -119 206 -220 337 -250
26 -6 57 -13 68 -15 11 -3 65 -5 120 -5 392 -3 635 251 620 646 -6 143 -47
255 -143 390 -57 79 -61 84 -200 233 -147 158 -158 170 -207 244 -51 76 -55
80 -77 67z"/>
</g>
</svg>
